# Blender v2.66 (sub 1) OBJ File: ''
# www.blender.org
v 1.000000 -1.000000 -1.000000
v 1.000000 -1.000000 1.000000
v -1.000000 -1.000000 1.000000
v -1.000000 -1.000000 -1.000000
v 1.000000 1.000000 -0.999999
v 0.999999 1.000000 1.000001
v -1.000000 1.000000 1.000000
v -1.000000 1.000000 -1.000000
v 1.000000 -1.000000 0.000000
v 0.000000 -1.000000 -1.000000
v 1.000000 0.000000 -1.000000
v 0.000000 -1.000000 1.000000
v 1.000000 0.000000 1.000000
v -1.000000 -1.000000 -0.000000
v -1.000000 0.000000 1.000000
v -1.000000 0.000000 -1.000000
v 1.000000 1.000000 0.000001
v 0.000000 1.000000 -1.000000
v -0.000001 1.000000 1.000000
v -1.000000 1.000000 -0.000000
v 0.000000 -1.000000 -0.000000
v -0.000000 1.000000 0.000000
v 1.000000 0.000000 0.000000
v -0.000000 0.000000 1.000000
v -1.000000 0.000000 -0.000000
v 0.000000 0.000000 -1.000000
v 1.000000 -1.000000 0.500000
v -0.500000 -1.000000 -1.000000
v 1.000000 0.500000 -1.000000
v -0.500000 -1.000000 1.000000
v 1.000000 0.500000 1.000000
v -1.000000 -1.000000 -0.500000
v -1.000000 0.500000 1.000000
v -1.000000 0.500000 -1.000000
v 1.000000 1.000000 0.500001
v -0.500000 1.000000 -1.000000
v -0.500000 1.000000 1.000000
v -1.000000 1.000000 -0.500000
v 1.000000 -1.000000 -0.500000
v 0.500000 -1.000000 -1.000000
v 1.000000 -0.500000 -1.000000
v 0.500000 -1.000000 1.000000
v 1.000000 -0.500000 1.000000
v -1.000000 -1.000000 0.500000
v -1.000000 -0.500000 1.000000
v -1.000000 -0.500000 -1.000000
v 1.000000 1.000000 -0.499999
v 0.500000 1.000000 -1.000000
v 0.499999 1.000000 1.000000
v -1.000000 1.000000 0.500000
v -0.500000 -1.000000 -0.000000
v 0.500000 -1.000000 -0.000000
v 0.000000 -1.000000 -0.500000
v 0.000000 -1.000000 0.500000
v -0.000000 1.000000 0.500000
v 0.000000 1.000000 -0.500000
v 0.500000 1.000000 0.000000
v -0.500000 1.000000 0.000000
v 1.000000 0.000000 0.500000
v 1.000000 0.000000 -0.500000
v 1.000000 -0.500000 0.000000
v 1.000000 0.500000 0.000000
v -0.500000 0.000000 1.000000
v 0.500000 0.000000 1.000000
v -0.000000 -0.500000 1.000000
v -0.000000 0.500000 1.000000
v -1.000000 0.000000 -0.500000
v -1.000000 0.000000 0.500000
v -1.000000 -0.500000 -0.000000
v -1.000000 0.500000 -0.000000
v -0.500000 0.000000 -1.000000
v 0.500000 0.000000 -1.000000
v 0.000000 0.500000 -1.000000
v 0.000000 -0.500000 -1.000000
v -0.500000 -1.000000 0.500000
v -0.500000 1.000000 0.500000
v 1.000000 0.500000 0.500000
v -0.500000 0.500000 1.000000
v -1.000000 0.500000 -0.500000
v -0.500000 -0.500000 -1.000000
v -0.500000 -1.000000 -0.500000
v 0.500000 -1.000000 -0.500000
v 0.500000 -1.000000 0.500000
v 0.500000 1.000000 0.500000
v 0.500000 1.000000 -0.500000
v -0.500000 1.000000 -0.500000
v 1.000000 -0.500000 0.500000
v 1.000000 -0.500000 -0.500000
v 1.000000 0.500000 -0.500000
v -0.500000 -0.500000 1.000000
v 0.500000 -0.500000 1.000000
v 0.500000 0.500000 1.000000
v -1.000000 -0.500000 -0.500000
v -1.000000 -0.500000 0.500000
v -1.000000 0.500000 0.500000
v -0.500000 0.500000 -1.000000
v 0.500000 0.500000 -1.000000
v 0.500000 -0.500000 -1.000000
vn 0.000000 -1.000000 0.000000
vn -0.000000 1.000000 0.000000
vn 1.000000 0.000000 0.000001
vn -0.000000 -0.000000 1.000000
vn -1.000000 -0.000000 -0.000000
vn 0.000000 0.000000 -1.000000
vn 1.000000 0.000000 0.000000
s off
f 75//1 30//1 3//1
f 76//2 50//2 7//2
f 77//3 35//3 6//3
f 78//4 37//4 33//4
f 79//5 38//5 34//5
f 80//6 28//6 4//6
f 81//1 51//1 14//1
f 82//1 52//1 21//1
f 83//1 42//1 12//1
f 84//2 55//2 19//2
f 85//2 56//2 22//2
f 86//2 38//2 20//2
f 87//7 59//7 13//7
f 88//7 60//7 23//7
f 89//3 47//3 17//3
f 90//4 63//4 45//4
f 91//4 64//4 65//4
f 92//4 49//4 66//4
f 93//5 67//5 46//5
f 94//5 68//5 69//5
f 95//5 50//5 70//5
f 96//6 71//6 16//6
f 97//6 72//6 26//6
f 98//6 40//6 10//6
f 51//1 75//1 44//1
f 21//1 54//1 75//1
f 54//1 12//1 30//1
f 55//2 76//2 37//2
f 22//2 58//2 76//2
f 58//2 20//2 50//2
f 59//7 77//7 31//7
f 23//7 62//7 77//7
f 62//7 17//7 35//7
f 63//4 78//4 15//4
f 24//4 66//4 63//4
f 66//4 19//4 78//4
f 67//5 79//5 16//5
f 25//5 70//5 67//5
f 70//5 20//5 79//5
f 71//6 80//6 46//6
f 26//6 74//6 80//6
f 74//6 10//6 28//6
f 28//1 81//1 32//1
f 10//1 53//1 81//1
f 53//1 21//1 51//1
f 40//1 82//1 53//1
f 1//1 39//1 82//1
f 39//1 9//1 52//1
f 52//1 83//1 54//1
f 9//1 27//1 83//1
f 27//1 2//1 42//1
f 35//2 84//2 49//2
f 17//2 57//2 84//2
f 57//2 22//2 55//2
f 47//2 85//2 57//2
f 5//2 48//2 85//2
f 48//2 18//2 56//2
f 56//2 86//2 58//2
f 18//2 36//2 86//2
f 36//2 8//2 38//2
f 27//7 87//7 43//7
f 9//7 61//7 87//7
f 61//7 23//7 59//7
f 39//7 88//7 61//7
f 1//7 41//7 88//7
f 41//7 11//7 60//7
f 60//7 89//7 62//7
f 11//7 29//7 89//7
f 29//7 5//7 47//7
f 30//4 90//4 45//4
f 12//4 65//4 90//4
f 65//4 24//4 90//4
f 42//4 91//4 12//4
f 2//4 43//4 91//4
f 43//4 13//4 91//4
f 64//4 92//4 24//4
f 13//4 31//4 64//4
f 31//4 6//4 92//4
f 32//5 93//5 4//5
f 14//5 69//5 32//5
f 69//5 25//5 93//5
f 44//5 94//5 14//5
f 3//5 45//5 44//5
f 45//5 15//5 94//5
f 68//5 95//5 25//5
f 15//5 33//5 68//5
f 33//5 7//5 95//5
f 36//6 96//6 34//6
f 18//6 73//6 96//6
f 73//6 26//6 71//6
f 48//6 97//6 73//6
f 5//6 29//6 97//6
f 29//6 11//6 72//6
f 72//6 98//6 74//6
f 11//6 41//6 98//6
f 41//6 1//6 40//6
f 44//1 75//1 3//1
f 37//2 76//2 7//2
f 31//7 77//7 6//7
f 37//4 7//4 33//4
f 38//5 8//5 34//5
f 46//6 80//6 4//6
f 32//1 81//1 14//1
f 53//1 82//1 21//1
f 54//1 83//1 12//1
f 49//2 84//2 19//2
f 57//2 85//2 22//2
f 58//2 86//2 20//2
f 43//7 87//7 13//7
f 61//7 88//7 23//7
f 62//7 89//7 17//7
f 63//4 15//4 45//4
f 64//4 24//4 65//4
f 49//4 19//4 66//4
f 67//5 16//5 46//5
f 68//5 25//5 69//5
f 50//5 20//5 70//5
f 34//6 96//6 16//6
f 73//6 97//6 26//6
f 74//6 98//6 10//6
f 14//1 51//1 44//1
f 51//1 21//1 75//1
f 75//1 54//1 30//1
f 19//2 55//2 37//2
f 55//2 22//2 76//2
f 76//2 58//2 50//2
f 13//7 59//7 31//7
f 59//7 23//7 77//7
f 77//7 62//7 35//7
f 78//4 33//4 15//4
f 66//4 78//4 63//4
f 19//4 37//4 78//4
f 79//5 34//5 16//5
f 70//5 79//5 67//5
f 20//5 38//5 79//5
f 16//6 71//6 46//6
f 71//6 26//6 80//6
f 80//6 74//6 28//6
f 4//1 28//1 32//1
f 28//1 10//1 81//1
f 81//1 53//1 51//1
f 10//1 40//1 53//1
f 40//1 1//1 82//1
f 82//1 39//1 52//1
f 21//1 52//1 54//1
f 52//1 9//1 83//1
f 83//1 27//1 42//1
f 6//2 35//2 49//2
f 35//2 17//2 84//2
f 84//2 57//2 55//2
f 17//2 47//2 57//2
f 47//2 5//2 85//2
f 85//2 48//2 56//2
f 22//2 56//2 58//2
f 56//2 18//2 86//2
f 86//2 36//2 38//2
f 2//7 27//7 43//7
f 27//7 9//7 87//7
f 87//7 61//7 59//7
f 9//7 39//7 61//7
f 39//7 1//7 88//7
f 88//7 41//7 60//7
f 23//7 60//7 62//7
f 60//7 11//7 89//7
f 89//7 29//7 47//7
f 3//4 30//4 45//4
f 30//4 12//4 90//4
f 24//4 63//4 90//4
f 91//4 65//4 12//4
f 42//4 2//4 91//4
f 13//4 64//4 91//4
f 92//4 66//4 24//4
f 31//4 92//4 64//4
f 6//4 49//4 92//4
f 93//5 46//5 4//5
f 69//5 93//5 32//5
f 25//5 67//5 93//5
f 94//5 69//5 14//5
f 45//5 94//5 44//5
f 15//5 68//5 94//5
f 95//5 70//5 25//5
f 33//5 95//5 68//5
f 7//5 50//5 95//5
f 8//6 36//6 34//6
f 36//6 18//6 96//6
f 96//6 73//6 71//6
f 18//6 48//6 73//6
f 48//6 5//6 97//6
f 97//6 29//6 72//6
f 26//6 72//6 74//6
f 72//6 11//6 98//6
f 98//6 41//6 40//6
